<?xml version="1.0" encoding="UTF-8"?>
<svg id="Calque_2" data-name="Calque 2" xmlns="http://www.w3.org/2000/svg" viewBox="0 0 642.2 617.58">
  <defs>
    <style>
      .cls-1 {
        fill: #f2f0e7;
      }

      .cls-2 {
        fill: #e9b437;
      }

      .cls-3 {
        fill: #00a19a;
      }

      .cls-4 {
        fill: #2b5a72;
      }
    </style>
  </defs>
  <g id="TX">
    <g>
      <path class="cls-1" d="M122.25,79.38C166.33,4.72,315.72-21.13,412.67,18.44c96.95,39.56,171.08,131.82,208.52,237.48,16.83,47.5,26.96,99.74,17.2,149.92-11.1,57.06-46.64,105.24-86.67,144.05-29.89,28.99-64.07,54.71-102.97,63.77-36.4,8.48-74.05,1.77-110.29-6.52-116.86-26.71-225.78-24.74-310.96-176.21C-57.68,279.46,78.18,154.04,122.25,79.38Z"/>
      <g>
        <path class="cls-2" d="M87.85,308.8c-3.08,.16-6.14,.03-9.2-.28-4.24-.68-8.37-1.81-12.36-3.38-1.34-.61-2.68-1.22-3.97-1.93-5.05-2.77-12.22-1.4-15.05,3.95-2.72,5.15-1.44,12.1,3.95,15.05,11.13,6.1,23.93,9.27,36.64,8.59,2.91-.15,5.68-1.12,7.78-3.22,1.91-1.91,3.34-5.04,3.22-7.78-.26-5.7-4.85-11.33-11-11Z"/>
        <path class="cls-2" d="M82.57,359.88c-11.96,2.88-23.33,9.7-31.34,19.05-1.93,2.25-3.22,4.73-3.22,7.78,0,2.7,1.2,5.92,3.22,7.78,2.1,1.92,4.85,3.35,7.78,3.22,2.79-.12,5.9-1.02,7.78-3.22,1.89-2.21,4-4.2,6.23-6.05,2.79-2.03,5.76-3.77,8.89-5.21,2.13-.83,4.29-1.59,6.51-2.12,5.6-1.35,9.47-8.01,7.68-13.53-1.88-5.82-7.53-9.13-13.53-7.68Z"/>
        <g>
          <path class="cls-3" d="M595.51,380.73c-13.29-6.1-26.21-12.96-38.7-20.56-4.92-2.99-12.31-1.24-15.05,3.95-2.83,5.35-1.31,11.86,3.95,15.05,12.49,7.6,25.42,14.46,38.7,20.56,2.76,1.27,5.44,1.94,8.48,1.11,2.55-.7,5.32-2.68,6.57-5.06,2.56-4.84,1.64-12.49-3.95-15.05Z"/>
          <path class="cls-3" d="M544.45,327.59c12.09-2.27,23.79-8.5,32.27-17.44,2.04-2.15,3.46-4.56,3.61-7.61,.14-2.69-.9-5.97-2.82-7.93-2-2.03-4.67-3.59-7.61-3.61-2.79-.02-5.94,.72-7.93,2.82-2,2.11-4.2,3.99-6.53,5.73-2.89,1.89-5.94,3.47-9.15,4.76-2.17,.72-4.36,1.37-6.61,1.79-5.66,1.06-9.87,7.52-8.36,13.13,1.59,5.91,7.06,9.5,13.13,8.36Z"/>
        </g>
        <g>
          <path class="cls-2" d="M360.37,464.02l-37.74,.45-22.4-144.04,3.24-.57,24.08-.57,13.18,102.06,.6-4.32,1.92-13.2,3.95-27.65,6.35-50.29,.12-5.46,6.23-.23,18.81,.11,3.83,.11-2.28,13.43-3.24,18.88-2.03,12.97-3.83,23.67-10.78,74.64Z"/>
          <path class="cls-2" d="M392.47,421.24l-.95-51.32c-.4-17.14-.76-34.28-1.08-51.43,4.63-.46,9.22-.68,13.78-.68,5.03,0,10.06,.27,15.1,.8,.07,17.14,.16,36.94,.24,59.39,.08,22.45,.16,42.4,.24,59.85l.12,26.17-27.32-.68v-4.78h.12v-11.72c0-4.63-.02-9.25-.06-13.88-.05-4.63-.1-8.54-.18-11.72Z"/>
          <path class="cls-2" d="M499.35,435c.08,.84,.12,1.63,.12,2.39,0,7.59-2.76,14.26-8.27,20.03-6.71,5.92-15.01,8.87-24.92,8.87-.32,0-3.2-.06-8.62-.17-5.44-.11-11.62-3.17-18.58-9.16-4.87-5.16-7.63-11.3-8.26-18.43-.48-3.79-1.04-15.64-1.68-35.55-.64-19.91-1-33.43-1.07-40.56v-3.53c0-5.69,.32-10.88,.95-15.59,.64-4.85,2.1-9.37,4.37-13.54,2.28-4.17,5.73-7.43,10.36-9.78,4.32-2.05,8.95-3.3,13.9-3.76,2.47-.23,4.91-.34,7.31-.34s4.79,.11,7.19,.34c7.91,.15,14.41,3.03,19.53,8.65,2.87,3.64,4.97,7.68,6.29,12.12,1.32,4.44,2.1,8.9,2.34,13.37,.07,2.2,.1,10.46,.06,24.8-.04,14.34-.06,22.03-.06,23.1-13.1,.15-27.72,.34-43.85,.57l-.12,27.87c0,2.66,.4,5.2,1.2,7.62,1.12,2.66,3.03,4.4,5.75,5.23,.4,.08,.84,.11,1.32,.11,1.36,0,2.75-.44,4.19-1.31,1.44-.87,2.6-2.15,3.48-3.81,1.36-3.11,2.03-9.56,2.03-19.34v-1.71l24.92-.11v9.67c0,5.62,.04,9.6,.12,11.95Zm-42.65-79.99c-.08,1.22-.12,3.68-.12,7.4s.04,8.54,.12,14.68v1.14c6.47-.08,13.62-.15,21.44-.23,.24-4.93,.36-9.25,.36-12.97,0-5.31-.34-9.86-1.02-13.66-.68-3.79-3.38-6.48-8.09-8.08-1.36-.3-2.59-.45-3.71-.45-2.63,0-4.73,1.06-6.29,3.18-1.56,2.13-2.46,5.13-2.7,8.99Z"/>
        </g>
        <g>
          <path class="cls-3" d="M177.23,352.88c-.9-.19-1.73-.28-2.48-.28-1.77,0-3.16,.67-4.21,2.01-1.04,1.34-1.64,3.23-1.8,5.67-.05,.77-.09,2.32-.09,4.67s.03,5.39,.09,9.26v.72c4.32-.05,9.1-.1,14.33-.14,.16-3.11,.24-5.84,.24-8.19,0-3.35-.23-6.22-.68-8.62-.45-2.39-2.25-4.09-5.4-5.1Z"/>
          <path class="cls-3" d="M255.75,323.72c-5.96-8.17-12.48-16.26-21.46-21.01-9.6-5.08-21.2-5.9-32.5-5.29-15.13,.82-31.02,4.36-43.48,14.09-10.95,8.55-18.2,21.07-23.22,33.82-11.17,28.35-12.43,60.5,.4,85.91,12.83,25.41,48.08,46.76,70.44,39.31,22.36-7.45,72.61-8.94,82.16-55.2,9.55-46.27-13.14-65.29-32.34-91.62Zm-57.82,49.27c-.03,9.04-.04,13.9-.04,14.57-8.75,.1-18.52,.22-29.3,.36l-.09,17.59c0,1.67,.27,3.28,.81,4.81,.74,1.67,2.02,2.78,3.84,3.3,.27,.05,.56,.07,.88,.07,.9,0,1.84-.28,2.8-.83,.96-.55,1.73-1.35,2.33-2.41,.9-1.96,1.36-6.03,1.36-12.2v-1.08l16.65-.07v6.1c0,3.54,.02,6.06,.08,7.54,.05,.53,.09,1.03,.09,1.51,0,4.79-1.84,9-5.52,12.64-4.49,3.73-10.04,5.6-16.65,5.6-.22,0-2.14-.03-5.77-.11-3.63-.07-7.76-2-12.4-5.78-3.26-3.26-5.1-7.13-5.53-11.63-.31-2.39-.69-9.87-1.12-22.43-.43-12.56-.67-21.1-.72-25.59v-2.22c0-3.59,.22-6.87,.65-9.84,.42-3.06,1.4-5.91,2.92-8.54,1.53-2.63,3.83-4.69,6.93-6.17,2.87-1.29,5.97-2.08,9.28-2.37,1.66-.14,3.28-.21,4.89-.21s3.2,.07,4.8,.21c5.29,.1,9.63,1.92,13.05,5.46,1.93,2.3,3.33,4.85,4.21,7.65,.88,2.8,1.4,5.61,1.56,8.43,.05,1.39,.06,6.61,.04,15.65Zm56.4-16.01c-.22,3.35-.32,10.82-.32,22.4v12.99c.05,7.18,.1,14.21,.12,21.11,.03,6.89-.01,12.11-.12,15.65h-16.8v-4.81c0-5.41,.02-24.15,.08-56.21,0-1.82,.02-3.37,.08-4.67v-1c0-1.96-.37-3.83-1.12-5.6-.53-1.05-1.33-1.91-2.4-2.58-.85-.48-1.73-.72-2.64-.72-.32,0-.61,.02-.88,.07-1.87,.48-3.18,1.55-3.93,3.23-.58,1.53-.87,3.14-.87,4.81-.22,3.45-.54,26.2-.97,68.27h-19.05c1.13-39,1.84-68.15,2.16-87.44,.27-.14,.99-.6,2.16-1.37,1.44-.96,3.86-1.93,7.29-2.91,3.41-.98,8.01-1.47,13.77-1.47,3.47,0,6.84,.46,10.09,1.4,3.25,.93,6.01,2.45,8.25,4.56,3.47,3.64,5.2,7.76,5.2,12.35,0,.67-.02,1.32-.08,1.94Z"/>
        </g>
        <path class="cls-2" d="M404.71,309.11c-4.39,1.46-11.32-2.73-13.84-7.73-2.52-4.99-2.27-11.31-.08-16.88,.99-2.5,2.41-4.97,4.56-6.65,2.45-1.91,5.57-2.61,8.54-2.77,2.22-.12,4.5,.04,6.39,1.04,1.76,.93,3.05,2.52,4.22,4.13,3.77,5.17,8.23,8.91,6.36,18-1.88,9.09-11.75,9.38-16.14,10.85Z"/>
        <g>
          <path class="cls-4" d="M118.22,185l17.25,.11,1.56,74.64c0,3.19,.02,7.1,.06,11.72,.04,4.63,.06,9.26,.06,13.89v16.49h16.9c3.8-2.68,7.86-4.94,12.09-6.84v-12.05c-.08-12.59-.16-27.86-.24-45.8-.08-17.94-.16-35.59-.24-52.96l17.86-.11,.48-26.97c-42.73,.15-64.78,.23-66.14,.23,.24,17.22,.36,26.44,.36,27.65Z"/>
          <path class="cls-4" d="M269.32,324.52c-.13-.18-.27-.35-.41-.53-.32-.41-.55-.7,.08,.11,.13,.17,.26,.34,.39,.51,.02,.03,.04,.05,.06,.08,0-.01-.03-.04-.05-.07-.02-.03-.04-.06-.08-.1Z"/>
          <path class="cls-4" d="M262.06,175.62c-1.32-4.44-3.41-8.48-6.29-12.12-5.12-5.61-11.62-8.5-19.53-8.65-2.4-.23-4.79-.34-7.19-.34s-4.83,.11-7.31,.34c-4.95,.46-9.59,1.71-13.9,3.76-4.63,2.35-8.09,5.61-10.36,9.78-2.28,4.17-3.74,8.69-4.37,13.54-.64,4.7-.95,9.9-.95,15.59v3.53c.07,7.13,.44,20.65,1.07,40.56,.64,19.91,1.2,31.77,1.68,35.56,.32,3.63,1.21,7,2.63,10.12,1.72-.15,3.45-.28,5.17-.36,12.33-.58,24.92,.78,36.07,6.36,3.8,1.9,7.19,4.35,10.34,7.1,2.19-1.21,4.26-2.64,6.18-4.33,5.51-5.76,8.27-12.44,8.27-20.03,0-.75-.04-1.55-.12-2.39-.08-2.35-.12-6.33-.12-11.94v-9.67l-24.92,.11v1.7c0,9.79-.68,16.23-2.03,19.34-.88,1.67-2.04,2.94-3.48,3.81-1.44,.87-2.83,1.31-4.19,1.31-.48,0-.92-.04-1.32-.11-2.71-.83-4.63-2.58-5.75-5.23-.8-2.42-1.2-4.97-1.2-7.62l.12-27.88c16.13-.22,30.75-.41,43.85-.57,0-1.06,.02-8.76,.06-23.1,.04-14.34,.02-22.6-.06-24.8-.24-4.48-1.02-8.93-2.34-13.37Zm-19.83,41.02l-21.44,.23v-1.14c-.08-6.14-.12-11.04-.12-14.68s.04-6.18,.12-7.4c.24-3.87,1.14-6.86,2.7-8.99,1.56-2.12,3.66-3.18,6.29-3.18,1.12,0,2.36,.15,3.71,.46,4.71,1.59,7.41,4.28,8.09,8.08,.67,3.79,1.02,8.35,1.02,13.65,0,3.72-.12,8.04-.36,12.97Z"/>
          <path class="cls-4" d="M333.35,235.35c1.08-1.03,2.06-2.79,2.94-5.29,2.87-7.51,4.51-13.78,4.91-18.83,.4-5.04,.6-8.59,.6-10.64,0-6.67-.72-14.03-2.16-22.07-1.91-10.39-6.15-16.95-12.7-19.68-6.55-2.73-12.66-4.1-18.33-4.1-10.06,0-18.43,.5-25.1,1.48-6.67,.99-10.16,1.56-10.48,1.71v17.29c-.08,17.68-.16,36.14-.24,55.41-.08,19.27-.16,35.84-.24,49.72l-.12,20.82,26.12-.68v-15.81c0-4.48,.16-17.9,.48-40.28,.87,.23,1.79,.38,2.75,.45l14.98,51.32,1.32,5.01,26.96,.34-16.9-62.81c2.4-1.21,4.13-2.34,5.21-3.36Zm-18.15-22.7c-.4,1.67-1.4,3.07-2.99,4.21-1.6,1.14-3.4,1.9-5.39,2.28-.4,.08-.84,.11-1.32,.11h-.72c-.88,0-1.76-.04-2.63-.11-.88-.07-1.92-.19-3.12-.34l-.12-37.89v-2.96h2.99c1.03-.08,2.03-.11,2.99-.11,3.75,0,6.35,.84,7.79,2.5,1.84,2.2,2.83,7.13,2.99,14.79,.16,7.66,.24,11.83,.24,12.52-.16,1.9-.4,3.57-.72,5.01Z"/>
          <path class="cls-4" d="M407.46,158.83c-6.55-2.73-12.66-4.1-18.33-4.1-10.06,0-18.43,.5-25.1,1.48-6.67,.99-10.16,1.56-10.48,1.71v17.29c-.08,17.68-.16,36.14-.24,55.41-.08,19.27-.16,35.84-.24,49.72l-.12,20.82,26.12-.68v-15.81c0-4.48,.16-17.9,.48-40.28,.87,.23,1.79,.38,2.75,.45l7.7,26.38c4.76-4.05,11-5.93,17.36-5.92,2.95,0,6.11,.5,8.91,1.68l-7.61-28.28c2.4-1.21,4.13-2.34,5.21-3.36,1.08-1.03,2.06-2.79,2.94-5.29,2.87-7.51,4.51-13.78,4.91-18.83,.4-5.04,.6-8.59,.6-10.64,0-6.67-.72-14.03-2.16-22.07-1.91-10.39-6.15-16.95-12.7-19.68Zm-11.74,53.82c-.4,1.67-1.4,3.07-2.99,4.21-1.6,1.14-3.4,1.9-5.39,2.28-.4,.08-.84,.11-1.32,.11h-.72c-.88,0-1.76-.04-2.63-.11-.88-.07-1.92-.19-3.12-.34l-.12-37.89v-2.96h2.99c1.03-.08,2.03-.11,2.99-.11,3.75,0,6.35,.84,7.79,2.5,1.84,2.2,2.83,7.13,2.99,14.79,.16,7.66,.24,11.83,.24,12.52-.16,1.9-.4,3.57-.72,5.01Z"/>
          <path class="cls-4" d="M500.31,188.99c-.24-4.48-1.02-8.93-2.34-13.37-1.32-4.44-3.41-8.48-6.29-12.12-5.12-5.61-11.62-8.5-19.53-8.65-2.4-.23-4.79-.34-7.19-.34s-4.83,.11-7.31,.34c-4.95,.46-9.59,1.71-13.9,3.76-4.63,2.35-8.09,5.61-10.36,9.78-2.28,4.17-3.74,8.69-4.37,13.54-.64,4.7-.95,9.9-.95,15.59v3.53c.07,7.13,.44,20.65,1.07,40.56,.64,19.91,1.2,31.77,1.68,35.56,.64,7.13,3.4,13.27,8.27,18.43,6.95,5.99,13.14,9.04,18.58,9.16,5.43,.11,8.31,.17,8.62,.17,9.91,0,18.21-2.96,24.92-8.87,5.51-5.76,8.27-12.44,8.27-20.03,0-.75-.04-1.55-.12-2.39-.08-2.35-.12-6.33-.12-11.94v-9.67l-24.92,.11v1.7c0,9.79-.68,16.23-2.03,19.34-.88,1.67-2.04,2.94-3.48,3.81-1.44,.87-2.83,1.31-4.19,1.31-.48,0-.92-.04-1.32-.11-2.71-.83-4.63-2.58-5.75-5.23-.8-2.42-1.2-4.97-1.2-7.62l.12-27.88c16.13-.22,30.75-.41,43.85-.57,0-1.06,.02-8.76,.06-23.1,.04-14.34,.02-22.6-.06-24.8Zm-22.17,27.65c-7.83,.08-14.98,.15-21.44,.23v-1.14c-.08-6.14-.12-11.04-.12-14.68s.04-6.18,.12-7.4c.24-3.87,1.14-6.86,2.7-8.99,1.56-2.12,3.66-3.18,6.29-3.18,1.12,0,2.36,.15,3.71,.46,4.71,1.59,7.41,4.28,8.09,8.08,.67,3.79,1.02,8.35,1.02,13.65,0,3.72-.12,8.04-.36,12.97Z"/>
        </g>
      </g>
    </g>
  </g>
</svg>